# This file uses centimeters as units for non-parametric coordinates.

mtllib table.mtl
v -5.000000 -0.250000 2.500000
v 5.000000 -0.250000 2.500000
v -5.000000 0.250000 2.500000
v 5.000000 0.250000 2.500000
v -5.000000 0.250000 -2.500000
v 5.000000 0.250000 -2.500000
v -5.000000 -0.250000 -2.500000
v 5.000000 -0.250000 -2.500000
v -4.628668 0.250000 2.121771
v 4.628668 0.250000 2.121771
v 4.628668 0.250000 -2.121771
v -4.628668 0.250000 -2.121771
v -4.628668 -0.058464 2.121771
v 4.628668 -0.058464 2.121771
v 4.628668 -0.058464 -2.121771
v -4.628668 -0.058464 -2.121771
v -5.000000 -0.250000 2.121771
v -4.628668 -0.250000 2.500000
v -4.628668 -0.250000 2.121771
v -5.000000 -0.250000 -2.121771
v -4.628668 -0.250000 -2.500000
v -4.628668 -0.250000 -2.121771
v 5.000000 -0.250000 -2.121771
v 4.628668 -0.250000 -2.500000
v 4.628668 -0.250000 -2.121771
v 5.000000 -0.250000 2.121771
v 4.628668 -0.250000 2.500000
v 4.628668 -0.250000 2.121771
v -5.000000 -1.881812 2.121771
v -4.628668 -1.881812 2.121771
v -4.628668 -1.881812 2.500000
v -5.000000 -1.881812 2.500000
v 5.000000 -1.881812 -2.121770
v 4.628669 -1.881812 -2.121770
v 4.628669 -1.881812 -2.500001
v 5.000000 -1.881812 -2.500001
v -5.000000 -1.881812 -2.500000
v -4.628668 -1.881812 -2.500000
v -4.628668 -1.881812 -2.121771
v -5.000000 -1.881812 -2.121771
v 4.628668 -1.881812 2.121771
v 4.628668 -1.881812 2.500000
v 5.000000 -1.881812 2.121771
v 5.000000 -1.881812 2.500000
vt 0.364692 0.570784
vt 0.377879 0.570784
vt 0.364692 0.745112
vt 0.377879 0.001843
vt 0.539020 0.745112
vt 0.364692 0.001843
vt 0.525833 0.570784
vt 0.539020 0.570784
vt 0.539020 0.001843
vt 0.525833 0.001843
vt 0.545945 0.570784
vt 0.559132 0.570784
vt 0.545945 0.745112
vt 0.559132 0.001843
vt 0.720273 0.745112
vt 0.545945 0.001843
vt 0.707085 0.570784
vt 0.720273 0.570784
vt 0.720273 0.001843
vt 0.707085 0.001843
vt 0.255627 0.749103
vt 0.255627 0.897057
vt 0.148079 0.749103
vt 0.148079 0.897057
vt 0.141944 0.749103
vt 0.141944 0.897057
vt 0.034396 0.749103
vt 0.034396 0.897057
vt 0.754027 0.570784
vt 0.740840 0.570784
vt 0.754027 0.001843
vt 0.740840 0.001843
vt 0.787159 0.570784
vt 0.773972 0.570784
vt 0.787159 0.001843
vt 0.773972 0.001843
vt 0.806648 0.570784
vt 0.793461 0.570784
vt 0.806648 0.001843
vt 0.793461 0.001843
vt 0.839781 0.570784
vt 0.826594 0.570784
vt 0.839781 0.001843
vt 0.826594 0.001843
vt 0.489128 0.910484
vt 0.489128 0.749103
vt 0.637082 0.910484
vt 0.637082 0.749103
vt 0.021788 0.749103
vt 0.028261 0.749103
vt 0.021788 0.762290
vt 0.028261 0.762290
vt 0.823680 0.749103
vt 0.823680 0.574775
vt 0.836867 0.742630
vt 0.836867 0.581249
vt 0.984821 0.742630
vt 0.998008 0.574775
vt 0.998008 0.749103
vt 0.984821 0.581249
vt 0.015652 0.762290
vt 0.009179 0.762290
vt 0.015652 0.749103
vt 0.009179 0.749103
vt 0.001992 0.766282
vt 0.008465 0.766282
vt 0.001992 0.779469
vt 0.008465 0.779469
vt 0.643217 0.762290
vt 0.649690 0.762290
vt 0.643217 0.910244
vt 0.649690 0.910244
vt 0.811072 0.762290
vt 0.811072 0.749103
vt 0.811072 0.910244
vt 0.649690 0.749103
vt 0.817545 0.910244
vt 0.649690 0.923431
vt 0.817545 0.762290
vt 0.811072 0.923431
vt 0.015830 0.779469
vt 0.015830 0.766282
vt 0.022303 0.779469
vt 0.022303 0.766282
vt 0.001992 0.570784
vt 0.008465 0.570784
vt 0.001992 0.745112
vt 0.008465 0.001843
vt 0.176320 0.745112
vt 0.001992 0.001843
vt 0.169847 0.570784
vt 0.176320 0.570784
vt 0.176320 0.001843
vt 0.169847 0.001843
vt 0.183439 0.001843
vt 0.357767 0.001843
vt 0.183439 0.176171
vt 0.189913 0.176171
vt 0.351294 0.176171
vt 0.183439 0.745112
vt 0.357767 0.176171
vt 0.189913 0.745112
vt 0.351294 0.745112
vt 0.357767 0.745112
vt 0.375445 0.910484
vt 0.375445 0.749103
vt 0.482993 0.910484
vt 0.482993 0.749103
vt 0.369310 0.749103
vt 0.369310 0.910484
vt 0.261762 0.749103
vt 0.261762 0.910484
vt 0.727197 0.001843
vt 0.733671 0.001843
vt 0.727197 0.570784
vt 0.733671 0.570784
vt 0.766803 0.570784
vt 0.760329 0.570784
vt 0.766803 0.001843
vt 0.760329 0.001843
vt 0.819425 0.570784
vt 0.812951 0.570784
vt 0.819425 0.001843
vt 0.812951 0.001843
vt 0.846083 0.001843
vt 0.852557 0.001843
vt 0.846083 0.570784
vt 0.852557 0.570784
vn 0.000000 0.000000 1.000000
vn 0.000000 0.000000 1.000000
vn 0.000000 0.000000 1.000000
vn 0.000000 0.000000 1.000000
vn 0.000000 0.000000 1.000000
vn 0.000000 0.000000 1.000000
vn 0.000000 1.000000 0.000000
vn 0.000000 1.000000 0.000000
vn 0.000000 1.000000 0.000000
vn 0.000000 1.000000 0.000000
vn 0.000000 0.000000 -1.000000
vn 0.000000 0.000000 -1.000000
vn 0.000000 0.000000 -1.000000
vn 0.000000 0.000000 -1.000000
vn 0.000000 0.000000 -1.000000
vn 0.000000 0.000000 -1.000000
vn 0.000000 -1.000000 0.000000
vn 0.000000 -1.000000 0.000000
vn 0.000000 -1.000000 0.000000
vn 0.000000 -1.000000 0.000000
vn 1.000000 0.000000 0.000000
vn 1.000000 -0.000001 0.000000
vn 1.000000 0.000000 0.000000
vn 1.000000 -0.000001 0.000000
vn 1.000000 0.000000 0.000000
vn 1.000000 -0.000001 0.000000
vn -1.000000 0.000000 0.000000
vn -1.000000 -0.000001 0.000000
vn -1.000000 0.000000 0.000000
vn -1.000000 -0.000001 0.000000
vn -1.000000 0.000000 0.000000
vn -1.000000 -0.000001 0.000000
vn 0.000000 1.000000 -0.000000
vn 0.000000 1.000000 -0.000000
vn 0.000000 1.000000 -0.000000
vn 0.000000 1.000000 -0.000000
vn -0.000000 1.000000 0.000000
vn 0.000000 1.000000 0.000000
vn -0.000000 1.000000 0.000000
vn 0.000000 1.000000 0.000000
vn 0.000000 1.000000 -0.000000
vn 0.000000 1.000000 -0.000000
vn 0.000000 1.000000 -0.000000
vn 0.000000 1.000000 -0.000000
vn -0.000000 1.000000 0.000000
vn 0.000000 1.000000 0.000000
vn -0.000000 1.000000 0.000000
vn 0.000000 1.000000 0.000000
vn 0.000000 0.000000 -1.000000
vn 0.000000 0.000000 -1.000000
vn 0.000000 0.000000 -1.000000
vn 0.000000 0.000000 -1.000000
vn -1.000000 0.000000 0.000000
vn -1.000000 0.000000 0.000000
vn -1.000000 0.000000 0.000000
vn -1.000000 0.000000 0.000000
vn 0.000000 0.000000 1.000000
vn 0.000000 0.000000 1.000000
vn 0.000000 0.000000 1.000000
vn 0.000000 0.000000 1.000000
vn 1.000000 0.000000 0.000000
vn 1.000000 0.000000 0.000000
vn 1.000000 0.000000 0.000000
vn 1.000000 0.000000 0.000000
vn 0.000000 -1.000000 0.000000
vn 0.000000 -1.000000 0.000000
vn 0.000000 -1.000000 0.000000
vn 0.000000 -1.000000 0.000000
vn 0.000000 -1.000000 0.000000
vn 0.000000 -1.000000 0.000000
vn 0.000000 -1.000000 0.000000
vn 0.000000 -1.000000 0.000000
vn 0.000000 -1.000000 0.000000
vn 0.000000 -1.000000 0.000000
vn 0.000000 -1.000000 0.000000
vn 0.000000 -1.000000 0.000000
vn 0.000000 -1.000000 0.000000
vn 0.000000 -1.000000 0.000000
vn 0.000000 -1.000000 0.000000
vn 0.000000 -1.000000 0.000000
vn -0.000000 -1.000000 0.000000
vn 0.000000 -1.000000 0.000000
vn 0.000000 -1.000000 -0.000000
vn 0.000000 -1.000000 -0.000000
vn 0.000000 -1.000000 0.000000
vn 0.000000 -1.000000 0.000000
vn 0.000000 -1.000000 0.000000
vn 0.000000 -1.000000 0.000000
vn 0.000000 0.000000 -1.000000
vn 0.000000 0.000000 -1.000000
vn 0.000000 0.000000 -1.000000
vn 0.000000 0.000000 -1.000000
vn 1.000000 0.000000 0.000000
vn 1.000000 0.000000 0.000000
vn 1.000000 0.000000 0.000000
vn 1.000000 0.000000 0.000000
vn 0.000000 0.000000 1.000000
vn 0.000000 0.000000 1.000000
vn 0.000000 0.000000 1.000000
vn 0.000000 0.000000 1.000000
vn -1.000000 0.000000 0.000000
vn -1.000000 0.000000 0.000000
vn -1.000000 0.000000 0.000000
vn -1.000000 0.000000 0.000000
vn 0.000000 0.000000 1.000000
vn 0.000000 0.000000 1.000000
vn 0.000000 0.000000 1.000000
vn 0.000000 0.000000 1.000000
vn -1.000000 -0.000001 0.000000
vn -1.000000 -0.000001 0.000000
vn -1.000000 -0.000001 0.000000
vn -1.000000 -0.000001 0.000000
vn 0.000000 0.000000 -1.000000
vn 0.000000 0.000000 -1.000000
vn 0.000000 0.000000 -1.000000
vn 0.000000 0.000000 -1.000000
vn 1.000000 0.000000 0.000000
vn 1.000000 -0.000000 0.000000
vn 1.000000 -0.000001 0.000000
vn 1.000000 -0.000001 0.000000
vn 0.000000 0.000000 -1.000000
vn 0.000000 0.000000 -1.000000
vn 0.000000 0.000000 -1.000000
vn 0.000000 0.000000 -1.000000
vn 1.000000 0.000000 0.000000
vn 1.000000 0.000000 0.000000
vn 1.000000 0.000000 0.000000
vn 1.000000 0.000000 0.000000
vn 0.000000 0.000000 1.000000
vn 0.000000 0.000000 1.000000
vn 0.000000 0.000000 1.000000
vn 0.000000 0.000000 1.000000
vn -1.000000 0.000000 0.000000
vn -1.000000 0.000000 0.000000
vn -1.000000 0.000000 0.000000
vn -1.000000 0.000000 0.000000
vn -1.000000 0.000000 0.000000
vn -1.000000 0.000000 0.000000
vn -1.000000 0.000000 0.000000
vn -1.000000 0.000000 0.000000
vn 0.000000 0.000000 -1.000000
vn 0.000000 0.000000 -1.000000
vn 0.000000 0.000000 -1.000000
vn 0.000000 0.000000 -1.000000
vn 1.000000 0.000000 0.000000
vn 1.000000 0.000000 0.000000
vn 1.000000 0.000000 0.000000
vn 1.000000 0.000000 0.000000
vn 0.000000 0.000000 1.000000
vn 0.000000 0.000000 1.000000
vn 0.000000 0.000000 1.000000
vn 0.000000 0.000000 1.000000
usemtl phong4SG
f 1/85/1 18/86/2 3/87/3
f 3/87/3 18/86/2 4/89/4
f 2/92/5 4/89/4 27/91/6
f 18/86/2 27/91/6 4/89/4
f 13/45/7 14/46/8 16/47/9
f 16/47/9 14/46/8 15/48/10
f 5/95/11 6/96/12 7/97/13
f 7/97/13 6/96/12 21/98/14
f 8/101/15 24/99/16 6/96/12
f 6/96/12 24/99/16 21/98/14
f 29/49/17 30/50/18 32/51/19
f 32/51/19 30/50/18 31/52/20
f 2/1/21 26/2/22 4/3/23
f 4/3/23 26/2/22 6/5/24
f 8/8/25 6/5/24 23/7/26
f 26/2/22 23/7/26 6/5/24
f 7/11/27 20/12/28 5/13/29
f 5/13/29 20/12/28 3/15/30
f 1/18/31 3/15/30 17/17/32
f 20/12/28 17/17/32 3/15/30
f 3/53/33 4/54/34 9/55/35
f 9/55/35 4/54/34 10/56/36
f 4/54/37 6/58/38 10/56/39
f 10/56/39 6/58/38 11/60/40
f 6/58/41 5/59/42 11/60/43
f 11/60/43 5/59/42 12/57/44
f 5/59/45 3/53/46 12/57/47
f 12/57/47 3/53/46 9/55/48
f 9/105/49 10/106/50 13/107/51
f 13/107/51 10/106/50 14/108/52
f 10/21/53 11/22/54 14/23/55
f 14/23/55 11/22/54 15/24/56
f 11/109/57 12/110/58 15/111/59
f 15/111/59 12/110/58 16/112/60
f 12/25/61 9/26/62 16/27/63
f 16/27/63 9/26/62 13/28/64
f 33/61/65 34/62/66 36/63/67
f 36/63/67 34/62/66 35/64/68
f 37/65/69 38/66/70 40/67/71
f 40/67/71 38/66/70 39/68/72
f 20/69/73 22/70/74 17/71/75
f 17/71/75 22/70/74 19/72/76
f 21/76/77 24/74/78 22/70/74
f 24/74/78 25/73/79 22/70/74
f 22/70/74 25/73/79 19/72/76
f 23/79/80 26/77/81 25/73/79
f 26/77/81 28/75/82 25/73/79
f 27/80/83 18/78/84 28/75/82
f 18/78/84 19/72/76 28/75/82
f 25/73/79 28/75/82 19/72/76
f 42/81/85 41/82/86 44/83/87
f 44/83/87 41/82/86 43/84/88
f 17/113/89 19/114/90 29/115/91
f 29/115/91 19/114/90 30/116/92
f 19/29/93 18/30/94 30/31/95
f 30/31/95 18/30/94 31/32/96
f 18/86/97 1/85/98 31/88/99
f 31/88/99 1/85/98 32/90/100
f 1/18/101 17/17/102 32/19/103
f 32/19/103 17/17/102 29/20/104
f 23/117/105 25/118/106 33/119/107
f 33/119/107 25/118/106 34/120/108
f 25/33/109 24/34/110 34/35/111
f 34/35/111 24/34/110 35/36/112
f 24/99/113 8/101/114 35/103/115
f 35/103/115 8/101/114 36/104/116
f 8/8/117 23/7/118 36/9/119
f 36/9/119 23/7/118 33/10/120
f 7/97/121 21/98/122 37/100/123
f 37/100/123 21/98/122 38/102/124
f 21/37/125 22/38/126 38/39/127
f 38/39/127 22/38/126 39/40/128
f 22/121/129 20/122/130 39/123/131
f 39/123/131 20/122/130 40/124/132
f 20/12/133 7/11/134 40/14/135
f 40/14/135 7/11/134 37/16/136
f 27/41/137 28/42/138 42/43/139
f 42/43/139 28/42/138 41/44/140
f 28/125/141 26/126/142 41/127/143
f 41/127/143 26/126/142 43/128/144
f 26/2/145 2/1/146 43/4/147
f 43/4/147 2/1/146 44/6/148
f 2/92/149 27/91/150 44/93/151
f 44/93/151 27/91/150 42/94/152
